#!OML:ASF E:\Mandelcareful walks\Project 1\Capture day 1\Session 1\Subject1.ASF
:FULLY-SPECIFIED
:DEGREES
589
root 11.7042 12.453 5.55146 370.204 1.1072 731.446
lowerback 44.2106 -1.78329 1.77649
upperback 9.59418 -1.6608 -2.81159
thorax -10.0625 -0.648668 -3.23073
lowerneck -24.3725 15.8788 8.65459
upperneck 11.7582 24.979 -26.5345
head 13.0049 9.37397 -5.86368
rclavicle 1.11319e-014 -1.74931e-014
rhumerus -32.5062 47.7318 -80.6644
rradius 81.2223
rwrist -87.7584
rhand -12.7605 -33.6537
rfingers 7.12502
rthumb 13.3241 -783.208
lclavicle 1.11319e-014 -1.74931e-014
lhumerus 102.018 -72.508 -12.1568
lradius 67.0492
lwrist 0.772802
lhand -36.8423 -26.9906
lfingers 7.12502
lthumb -9.92252 2.75556
rfemur -55.6181 -14.6526 -10.7252
rtibia 93.7816
rfoot -32.6513 -16.3739
rtoes -29.7573
lfemur -64.5002 23.0224 -14.1396
ltibia 78.2864
lfoot -10.3881 9.4777
ltoes -20.6892
590
root 11.9388 12.4122 5.62546 370.172 1.54352 731.081
lowerback 44.5283 -1.83007 1.5589
upperback 9.57891 -1.8114 -2.87848
thorax -10.1759 -0.710804 -3.12244
lowerneck -24.3706 16.132 8.70973
upperneck 11.3686 25.2463 -26.6555
head 12.9355 9.51849 -5.82387
rclavicle -1.43125e-014 -1.11319e-014
rhumerus -32.5197 47.4191 -80.7289
rradius 80.4487
rwrist -88.0797
rhand -11.5584 -33.3765
rfingers 7.12502
rthumb 14.4825 -782.851
lclavicle -1.43125e-014 -1.11319e-014
lhumerus 104.209 -71.8557 -13.7875
lradius 66.0861
lwrist 0.716654
lhand -36.4597 -26.5259
lfingers 7.12502
lthumb -9.5534 3.23755
rfemur -54.4005 -15.0059 -11.6243
rtibia 93.1477
rfoot -32.3582 -16.1713
rtoes -30.9407
lfemur -65.4294 22.2665 -14.4775
ltibia 80.2886
lfoot -11.9214 9.74977
ltoes -19.3469
591
root 12.1654 12.3839 5.69992 370.138 1.69143 730.803
lowerback 44.8618 -1.55477 1.06178
upperback 9.54175 -1.72217 -3.06668
thorax -10.3025 -0.661131 -3.10919
lowerneck -24.193 16.2919 8.83385
upperneck 11.0593 25.3049 -26.5187
head 12.7767 9.60683 -5.77017
rclavicle -5.56597e-015 -2.38542e-015
rhumerus -32.4457 46.2633 -81.0187
rradius 79.3524
rwrist -88.2023
rhand -10.3378 -34.1792
rfingers 7.12502
rthumb 15.6584 -783.566
lclavicle -5.56597e-015 -2.38542e-015
lhumerus 107.757 -71.0595 -17.0161
lradius 65.2026
lwrist 0.428738
lhand -36.0415 -24.9309
lfingers 7.12502
lthumb -9.14984 4.85056
rfemur -53.2091 -14.9313 -12.5298
rtibia 92.3615
rfoot -32.2332 -16.0348
rtoes -31.8006
lfemur -65.962 21.7563 -14.6896
ltibia 82.0767
lfoot -13.63 9.54296
ltoes -17.0861
592
root 12.4481 12.3969 5.84658 369.713 0.893557 730.134
lowerback 45.0797 -1.23534 0.791349
upperback 9.62524 -1.49987 -3.26487
thorax -10.2562 -0.558933 -3.28316
lowerneck -23.5557 16.4907 8.53373
upperneck 10.4952 25.5577 -26.5981
head 12.462 9.81003 -5.69422
rclavicle -1.82882e-014 3.18055e-015
rhumerus -32.8424 46.4363 -81.5086
rradius 78.2592
rwrist -87.6829
rhand -10.4801 -33.8698
rfingers 7.12502
rthumb 15.5213 -783.267
lclavicle -1.82882e-014 3.18055e-015
lhumerus 108.968 -70.6994 -17.8354
lradius 64.2623
lwrist -0.071265
lhand -35.9166 -24.4398
lfingers 7.12502
lthumb -9.02934 5.34694
rfemur -51.5251 -13.9195 -13.4917
rtibia 90.801
rfoot -31.9632 -15.5013
rtoes -31.9262
lfemur -65.4369 21.4621 -14.6298
ltibia 83.8117
lfoot -16.0412 9.77887
ltoes -14.622
593
root 12.664 12.3868 5.91279 370.286 1.3091 728.331
lowerback 44.8915 -1.24017 1.44806
upperback 9.43742 -1.19362 -3.01376
thorax -10.4025 -0.444678 -3.48584
lowerneck -23.2978 16.629 8.44214
upperneck 10.1323 25.6554 -26.5127
head 12.2603 9.91546 -5.62423
rclavicle -1.59028e-015 4.77083e-015
rhumerus -33.1158 46.0183 -82.005
rradius 77.1309
rwrist -87.3638
rhand -10.2879 -33.548
rfingers 7.12502
rthumb 15.7064 -782.931
lclavicle -1.59028e-015 4.77083e-015
lhumerus 111.514 -69.9562 -19.8419
lradius 63.1458
lwrist -0.273335
lhand -35.1804 -23.8508
lfingers 7.12502
lthumb -8.31888 5.96539
rfemur -51.0399 -13.2797 -12.4034
rtibia 89.7076
rfoot -31.7844 -15.807
rtoes -31.6784
lfemur -66.9468 21.4025 -13.6809
ltibia 85.3305
lfoot -16.8612 9.57287
ltoes -13.808
594
root 12.9191 12.3842 5.99551 370.034 1.17421 728.015
lowerback 44.9058 -0.981855 1.05003
upperback 9.61815 -1.1186 -3.44113
thorax -10.2064 -0.394783 -3.77816
lowerneck -23.1195 16.7666 8.54071
upperneck 9.76815 25.6172 -26.1728
head 12.0193 9.98253 -5.52707
rclavicle 1.59028e-015 -1.31198e-014
rhumerus -33.1393 45.2875 -82.7698
rradius 75.7185
rwrist -87.2614
rhand -9.67203 -33.2586
rfingers 7.12502
rthumb 16.2995 -782.594
lclavicle 1.59028e-015 -1.31198e-014
lhumerus 114.583 -69.0817 -22.5102
lradius 61.6307
lwrist -0.116694
lhand -32.9288 -22.7715
lfingers 7.12502
lthumb -6.14547 7.11934
rfemur -49.5328 -12.6235 -13.3656
rtibia 88.3642
rfoot -31.3721 -15.7618
rtoes -32.3029
lfemur -67.0128 21.4226 -14.2725
ltibia 86.7634
lfoot -18.2377 9.66092
ltoes -13.3602
595
root 13.1546 12.4008 6.06509 370.687 1.44679 727.871
lowerback 44.3625 -0.73334 0.93545
upperback 9.70008 -0.962004 -4.13408
thorax -9.98134 -0.307197 -4.54256
lowerneck -23.6313 16.8346 9.23691
upperneck 9.86754 25.343 -25.599
head 12.0691 9.88148 -5.47487
rclavicle 5.56597e-015 -5.1684e-015
rhumerus -32.8579 43.2612 -83.7131
rradius 73.9434
rwrist -87.1417
rhand -8.53287 -33.3982
rfingers 7.12502
rthumb 17.3961 -782.64
lclavicle 5.56597e-015 -5.1684e-015
lhumerus 119.43 -67.5181 -27.2603
lradius 60.5681
lwrist -0.315546
lhand -31.8841 -23.097
lfingers 7.12502
lthumb -5.13685 6.82071
rfemur -48.8233 -12.9307 -14.1474
rtibia 87.087
rfoot -30.6311 -16.076
rtoes -32.838
lfemur -68.2145 21.1989 -15.5303
ltibia 87.9222
lfoot -19.2931 9.91996
ltoes -13.459
596
root 13.3978 12.4168 6.13068 371.083 1.86956 726.051
lowerback 43.8962 -0.987345 1.64823
upperback 9.64024 -0.950949 -3.99336
thorax -9.92378 -0.320954 -4.76192
lowerneck -23.221 17.1253 9.0887
upperneck 9.24391 25.6293 -25.5655
head 11.7829 10.0993 -5.36968
rclavicle -4.96962e-015 1.05356e-014
rhumerus -32.4414 43.0794 -83.937
rradius 72.1814
rwrist -87.5098
rhand -7.04145 -33.7856
rfingers 7.12502
rthumb 18.831 -782.894
lclavicle -4.96962e-015 1.05356e-014
lhumerus 120.32 -67.1206 -27.8331
lradius 59.3439
lwrist -0.733406
lhand -30.5967 -22.8619
lfingers 7.12502
lthumb -3.89369 7.08229
rfemur -47.9011 -12.33 -12.923
rtibia 85.6205
rfoot -30.1898 -16.8811
rtoes -32.8724
lfemur -69.2952 21.576 -14.8604
ltibia 89.0992
lfoot -20.1048 9.55055
ltoes -13.1317
597
root 13.6491 12.4393 6.22099 371.276 2.2954 725.538
lowerback 43.6698 -0.872917 1.37922
upperback 9.69115 -0.927348 -4.01054
thorax -9.79633 -0.305868 -4.65009
lowerneck -23.0763 17.3333 9.35449
upperneck 8.75017 25.816 -25.9444
head 11.7219 10.2162 -5.48187
rclavicle 1.39149e-014 -2.15681e-014
rhumerus -32.3761 42.7585 -84.2311
rradius 70.6117
rwrist -86.7178
rhand -6.74349 -33.95
rfingers 7.12502
rthumb 19.1175 -783.03
lclavicle 1.39149e-014 -2.15681e-014
lhumerus 122.485 -66.2885 -29.2787
lradius 58.1551
lwrist -0.993016
lhand -29.02 -21.1376
lfingers 7.12502
lthumb -2.37107 8.82899
rfemur -46.1837 -11.6369 -13.4972
rtibia 83.7776
rfoot -29.9635 -17.1235
rtoes -32.3877
lfemur -69.6778 20.9254 -15.3885
ltibia 90.0871
lfoot -21.3839 9.65496
ltoes -12.5282
598
root 13.9204 12.466 6.31746 372.064 2.84442 724.934
lowerback 42.5329 -0.947117 1.61298
upperback 9.77467 -0.941365 -4.18605
thorax -9.38581 -0.309987 -4.95291
lowerneck -23.146 17.5216 9.75185
upperneck 8.41457 25.9274 -26.1686
head 11.7308 10.2831 -5.57102
rclavicle -3.97569e-015 -2.48481e-015
rhumerus -32.1561 41.739 -84.4642
rradius 68.8709
rwrist -86.3755
rhand -5.29247 -33.9329
rfingers 7.12502
rthumb 20.5124 -782.869
lclavicle -3.97569e-015 -2.48481e-015
lhumerus 124.704 -65.5469 -30.9533
lradius 57.2588
lwrist -1.4623
lhand -26.8192 -19.1259
lfingers 7.12502
lthumb -0.24543 10.8537
rfemur -45.0513 -12.2945 -13.8293
rtibia 81.847
rfoot -29.2051 -16.9361
rtoes -32.2804
lfemur -70.8122 19.8426 -16.0096
ltibia 91.0178
lfoot -22.5083 10.1688
ltoes -12.3794
599
root 14.2126 12.5201 6.45299 372.336 2.53863 724.246
lowerback 41.8314 -0.737136 1.77345
upperback 9.9059 -0.68509 -4.61176
thorax -9.02528 -0.185276 -5.60481
lowerneck -23.1954 17.6135 9.99837
upperneck 8.07696 25.8448 -26.0214
head 11.5991 10.2926 -5.56808
rclavicle 1.80397e-014 -1.3331e-014
rhumerus -32.0262 40.4436 -85.02
rradius 66.9857
rwrist -85.8931
rhand -4.0555 -34.0724
rfingers 7.12502
rthumb 21.7007 -782.876
lclavicle 1.80397e-014 -1.3331e-014
lhumerus 126.936 -64.8907 -32.7919
lradius 56.4647
lwrist -2.24186
lhand -24.0315 -17.8731
lfingers 7.12502
lthumb 2.4469 12.0926
rfemur -43.665 -11.9107 -14.1238
rtibia 79.5052
rfoot -28.1662 -17.3446
rtoes -32.7688
lfemur -70.7972 19.6347 -16.5498
ltibia 91.7636
lfoot -24.1035 10.4272
ltoes -11.2579
600
root 14.4237 12.569 6.49162 373.212 3.63198 723.585
lowerback 41.36 -0.880006 1.66291
upperback 9.66997 -0.89263 -4.52741
thorax -9.16418 -0.289825 -5.36947
lowerneck -23.0038 17.7206 9.87379
upperneck 7.45939 25.8367 -25.893
head 11.2903 10.3706 -5.50971
rclavicle 9.93923e-016 1.42131e-014
rhumerus -31.9588 39.8798 -85.6912
rradius 65.0322
rwrist -85.1053
rhand -3.60602 -34.4174
rfingers 7.12502
rthumb 22.1322 -783.171
lclavicle 9.93923e-016 1.42131e-014
lhumerus 128.592 -64.349 -34.0158
lradius 55.5335
lwrist -2.46697
lhand -21.6641 -17.4567
lfingers 7.12502
lthumb 4.73316 12.4705
rfemur -42.7154 -12.2505 -13.6597
rtibia 77.6647
rfoot -27.36 -18.6616
rtoes -33.0836
lfemur -72.0101 19.1518 -16.9914
ltibia 92.0821
lfoot -24.5569 9.97353
ltoes -10.1174
601
root 14.6893 12.6358 6.5911 373.281 4.2456 722.858
lowerback 41.3792 -1.08282 2.20687
upperback 9.6862 -0.950801 -4.80431
thorax -9.17967 -0.313983 -5.93252
lowerneck -23.1019 17.8143 9.99929
upperneck 7.19473 25.8035 -25.6999
head 11.1794 10.3916 -5.46184
rclavicle -2.78299e-014 -1.15295e-014
rhumerus -31.963 38.8859 -86.4885
rradius 63.1642
rwrist -84.3028
rhand -3.53396 -34.9217
rfingers 7.12502
rthumb 22.2014 -783.667
lclavicle -2.78299e-014 -1.15295e-014
lhumerus 130.971 -63.532 -36.0157
lradius 54.9382
lwrist -2.48689
lhand -19.2177 -16.6836
lfingers 7.12502
lthumb 7.09501 13.1775
rfemur -40.6767 -12.161 -13.617
rtibia 75.2719
rfoot -26.6711 -19.2401
rtoes -32.7882
lfemur -71.7913 18.2962 -17.3008
ltibia 92.3734
lfoot -25.764 9.9442
ltoes -8.26885
602
root 14.8281 12.737 6.70057 372.975 1.55156 721.351
lowerback 41.9882 1.40168 -0.131093
upperback 9.47702 1.05191 -4.77246
thorax -9.38572 0.592684 -5.52741
lowerneck -23.2063 17.9333 10.4109
upperneck 6.77782 25.7285 -25.6763
head 11.0806 10.4013 -5.51859
rclavicle 4.37326e-015 -3.99557e-014
rhumerus -31.9019 37.2862 -87.2985
rradius 61.3801
rwrist -83.6661
rhand -3.50553 -35.5817
rfingers 7.12502
rthumb 22.2287 -784.323
lclavicle 4.37326e-015 -3.99557e-014
lhumerus 133.817 -62.5483 -38.5171
lradius 54.5695
lwrist -2.64762
lhand -15.3207 -15.473
lfingers 7.12502
lthumb 10.8555 14.2264
rfemur -40.8614 -8.38848 -12.368
rtibia 73.203
rfoot -26.1204 -20.9293
rtoes -32.061
lfemur -70.1953 21.878 -16.7173
ltibia 92.3822
lfoot -26.9794 8.85724
ltoes -7.24172
603
root 15.0758 12.8025 6.78736 373.553 2.33056 720.739
lowerback 41.3544 0.976367 -0.233579
upperback 9.45513 0.5482 -4.52659
thorax -9.25743 0.358288 -4.98194
lowerneck -23.1041 18.0414 9.46975
upperneck 6.20169 25.9445 -25.4365
head 10.716 10.5603 -5.25647
rclavicle 4.37326e-015 3.65764e-014
rhumerus -31.6111 38.1349 -87.3351
rradius 59.889
rwrist -83.5942
rhand -3.79428 -36.2076
rfingers 7.12502
rthumb 21.9515 -784.982
lclavicle 4.37326e-015 3.65764e-014
lhumerus 132.88 -63.2071 -37.112
lradius 54.0179
lwrist -3.01281
lhand -12.5232 -14.4759
lfingers 7.12502
lthumb 13.5528 15.063
rfemur -39.5522 -8.80979 -12.1183
rtibia 70.9721
rfoot -25.188 -21.8663
rtoes -30.9948
lfemur -70.5076 20.6199 -17.0641
ltibia 92.4951
lfoot -28.0189 8.90061
ltoes -5.3445
